<svg
 xmlns="http://www.w3.org/2000/svg"
 xmlns:xlink="http://www.w3.org/1999/xlink"
 width="29px" height="39px">
<path fill-rule="evenodd"  fill="rgb(184, 229, 254)"
 d="M26.942,38.104 L2.132,38.104 C1.230,38.104 0.499,37.373 0.499,36.471 L0.499,4.582 C0.499,3.681 1.230,2.950 2.132,2.950 L4.499,2.950 L4.499,1.897 C4.481,0.860 5.308,0.004 6.346,-0.014 C7.384,-0.031 8.239,0.796 8.257,1.833 C8.257,1.855 8.257,1.876 8.257,1.897 L8.257,2.950 L12.657,2.950 L12.657,1.897 C12.657,0.859 13.499,0.018 14.537,0.018 C15.574,0.018 16.416,0.859 16.416,1.897 L16.416,2.950 L20.819,2.950 L20.819,1.897 C20.801,0.860 21.628,0.004 22.666,-0.014 C23.704,-0.031 24.559,0.796 24.577,1.833 C24.577,1.855 24.577,1.876 24.577,1.897 L24.577,2.950 L26.942,2.950 C27.843,2.950 28.574,3.681 28.574,4.582 L28.574,36.471 C28.574,37.373 27.843,38.104 26.942,38.104 ZM7.169,3.497 C7.169,3.496 7.168,3.495 7.168,3.494 C7.168,3.493 7.169,3.492 7.169,3.491 L7.169,1.897 C7.168,1.461 6.815,1.107 6.378,1.106 C5.941,1.107 5.587,1.460 5.587,1.897 L5.587,5.091 C5.599,5.528 5.962,5.873 6.399,5.861 C6.819,5.850 7.158,5.512 7.169,5.091 L7.169,3.497 ZM15.328,3.497 C15.328,3.496 15.327,3.495 15.327,3.494 C15.327,3.493 15.328,3.492 15.328,3.491 L15.328,1.897 C15.327,1.460 14.973,1.107 14.537,1.106 C14.100,1.107 13.746,1.460 13.746,1.897 L13.746,3.491 C13.746,3.492 13.746,3.493 13.746,3.494 C13.746,3.495 13.746,3.496 13.746,3.497 L13.746,5.091 C13.746,5.528 14.100,5.882 14.537,5.882 C14.974,5.882 15.328,5.528 15.328,5.091 L15.328,3.497 ZM23.489,3.507 C23.489,3.503 23.486,3.499 23.486,3.494 C23.486,3.489 23.489,3.486 23.489,3.481 L23.489,1.897 C23.489,1.460 23.135,1.107 22.698,1.106 C22.261,1.107 21.908,1.461 21.907,1.897 L21.907,5.091 C21.919,5.528 22.282,5.873 22.719,5.861 C23.140,5.850 23.478,5.512 23.489,5.091 L23.489,3.507 ZM27.486,4.582 C27.486,4.282 27.242,4.038 26.942,4.038 L24.577,4.038 L24.577,5.091 C24.576,6.128 23.735,6.969 22.698,6.970 C21.661,6.969 20.820,6.128 20.819,5.091 L20.819,4.038 L16.416,4.038 L16.416,5.091 C16.414,6.128 15.574,6.969 14.537,6.970 C13.499,6.969 12.659,6.128 12.657,5.091 L12.657,4.038 L8.257,4.038 L8.257,5.091 C8.256,6.128 7.415,6.969 6.378,6.970 C5.341,6.969 4.500,6.128 4.499,5.091 L4.499,4.038 L2.132,4.038 C1.831,4.038 1.588,4.282 1.588,4.582 L1.588,9.093 L27.486,9.093 L27.486,4.582 ZM27.486,10.181 L1.588,10.181 L1.588,36.471 C1.588,36.772 1.831,37.016 2.132,37.016 L26.942,37.016 C27.242,37.016 27.486,36.772 27.486,36.471 L27.486,10.181 ZM24.330,32.137 L4.743,32.137 C4.443,32.137 4.199,31.893 4.199,31.593 C4.199,31.292 4.443,31.049 4.743,31.049 L24.330,31.049 C24.631,31.049 24.874,31.292 24.874,31.593 C24.874,31.893 24.631,32.137 24.330,32.137 ZM24.330,26.815 L4.743,26.815 C4.443,26.815 4.199,26.571 4.199,26.270 C4.199,25.970 4.443,25.726 4.743,25.726 L24.330,25.726 C24.631,25.726 24.874,25.970 24.874,26.270 C24.874,26.571 24.631,26.815 24.330,26.815 ZM24.330,21.492 L4.743,21.492 C4.443,21.492 4.199,21.249 4.199,20.948 C4.199,20.648 4.443,20.404 4.743,20.404 L24.330,20.404 C24.631,20.404 24.874,20.648 24.874,20.948 C24.874,21.249 24.631,21.492 24.330,21.492 ZM24.330,16.171 L4.743,16.171 C4.443,16.171 4.199,15.927 4.199,15.627 C4.199,15.326 4.443,15.083 4.743,15.083 L24.330,15.083 C24.631,15.083 24.874,15.326 24.874,15.627 C24.874,15.927 24.631,16.171 24.330,16.171 Z"/>
</svg>