<svg
 xmlns="http://www.w3.org/2000/svg"
 xmlns:xlink="http://www.w3.org/1999/xlink"
 width="31px" height="39px">
<path fill-rule="evenodd"  fill="rgb(184, 229, 254)"
 d="M30.042,33.003 C30.042,33.003 30.042,33.003 30.041,33.003 L27.106,33.003 L27.106,37.613 C27.106,37.914 26.862,38.157 26.561,38.157 L4.626,38.157 C4.626,38.157 4.626,38.157 4.626,38.157 C2.211,38.154 0.254,36.197 0.251,33.781 C0.250,33.711 0.255,33.641 0.262,33.571 L0.262,4.262 C0.262,1.932 2.151,0.043 4.481,0.043 C6.053,0.043 7.407,0.911 8.134,2.185 L30.041,2.185 C30.342,2.185 30.586,2.429 30.586,2.730 L30.586,32.458 C30.586,32.759 30.343,33.003 30.042,33.003 ZM7.612,4.262 C7.618,3.826 7.533,3.410 7.377,3.030 C7.349,2.990 7.325,2.949 7.309,2.901 C6.816,1.849 5.764,1.108 4.524,1.092 C2.796,1.069 1.376,2.452 1.353,4.180 C1.353,4.207 1.353,4.235 1.353,4.262 L1.353,30.915 C2.208,29.942 3.471,29.345 4.864,29.422 C5.910,29.480 6.877,29.909 7.612,30.600 L7.612,4.262 ZM8.127,32.987 C8.120,32.986 8.114,32.984 8.106,32.983 C8.046,32.971 7.991,32.953 7.940,32.923 C7.929,32.917 7.919,32.909 7.908,32.901 C7.866,32.872 7.827,32.841 7.794,32.801 C7.778,32.782 7.766,32.760 7.752,32.738 C7.731,32.704 7.712,32.671 7.699,32.633 C7.694,32.620 7.684,32.611 7.680,32.597 C7.673,32.584 7.655,32.543 7.650,32.529 C6.958,30.857 5.042,30.062 3.370,30.753 C2.205,31.235 1.423,32.343 1.353,33.601 L1.353,33.781 C1.353,33.794 1.347,33.805 1.346,33.817 C1.368,35.614 2.826,37.065 4.627,37.068 L26.017,37.068 L26.017,33.003 L8.208,33.003 C8.179,33.003 8.155,32.991 8.127,32.987 ZM29.497,3.274 L8.573,3.274 C8.649,3.593 8.701,3.920 8.701,4.262 L8.701,31.914 L29.497,31.914 L29.497,3.274 ZM12.212,6.967 L15.815,6.967 C16.416,6.967 16.904,7.455 16.904,8.056 L16.904,11.659 C16.904,12.260 16.416,12.748 15.815,12.748 L12.212,12.748 C11.611,12.748 11.124,12.260 11.124,11.659 L11.124,8.056 C11.124,7.455 11.611,6.967 12.212,6.967 ZM12.212,11.659 L15.815,11.659 L15.815,8.056 L12.212,8.056 L12.212,11.659 ZM12.212,14.704 L15.815,14.704 C16.416,14.704 16.904,15.191 16.904,15.793 L16.904,19.395 C16.904,19.996 16.416,20.484 15.815,20.484 L12.212,20.484 C11.611,20.484 11.124,19.996 11.124,19.395 L11.124,15.793 C11.124,15.191 11.611,14.704 12.212,14.704 ZM12.212,19.395 L15.815,19.395 L15.815,15.793 L12.212,15.793 L12.212,19.395 ZM12.212,22.441 L15.815,22.441 C16.416,22.441 16.904,22.928 16.904,23.530 L16.904,27.132 C16.904,27.733 16.416,28.221 15.815,28.221 L12.212,28.221 C11.611,28.221 11.124,27.733 11.124,27.132 L11.124,23.530 C11.124,22.928 11.611,22.441 12.212,22.441 ZM12.212,27.132 L15.815,27.132 L15.815,23.530 L12.212,23.530 L12.212,27.132 ZM19.344,8.149 L26.605,8.149 C26.906,8.149 27.150,8.393 27.150,8.693 C27.150,8.994 26.906,9.238 26.605,9.238 L19.344,9.238 C19.043,9.238 18.800,8.994 18.800,8.693 C18.800,8.393 19.043,8.149 19.344,8.149 ZM19.344,10.805 L26.605,10.805 C26.906,10.805 27.150,11.049 27.150,11.349 C27.150,11.650 26.906,11.894 26.605,11.894 L19.344,11.894 C19.043,11.894 18.800,11.650 18.800,11.349 C18.800,11.049 19.043,10.805 19.344,10.805 ZM19.344,15.888 L26.605,15.888 C26.906,15.888 27.150,16.132 27.150,16.433 C27.150,16.733 26.906,16.977 26.605,16.977 L19.344,16.977 C19.043,16.977 18.800,16.733 18.800,16.433 C18.800,16.132 19.043,15.888 19.344,15.888 ZM19.344,18.542 L26.605,18.542 C26.906,18.542 27.150,18.786 27.150,19.086 C27.150,19.387 26.906,19.631 26.605,19.631 L19.344,19.631 C19.043,19.631 18.800,19.387 18.800,19.086 C18.800,18.786 19.043,18.542 19.344,18.542 ZM19.344,23.622 L26.605,23.622 C26.906,23.622 27.150,23.866 27.150,24.167 C27.150,24.468 26.906,24.711 26.605,24.711 L19.344,24.711 C19.043,24.711 18.800,24.468 18.800,24.167 C18.800,23.866 19.043,23.622 19.344,23.622 ZM19.344,26.278 L26.605,26.278 C26.906,26.278 27.150,26.522 27.150,26.823 C27.150,27.124 26.906,27.367 26.605,27.367 L19.344,27.367 C19.043,27.367 18.800,27.124 18.800,26.823 C18.800,26.522 19.043,26.278 19.344,26.278 Z"/>
</svg>