<svg
 xmlns="http://www.w3.org/2000/svg"
 xmlns:xlink="http://www.w3.org/1999/xlink"
 width="30px" height="39px">
<path fill-rule="evenodd"  fill="rgb(184, 229, 254)"
 d="M28.807,38.776 L0.728,38.776 C0.429,38.776 0.188,38.534 0.188,38.236 L0.188,1.517 C0.188,1.219 0.429,0.977 0.728,0.977 L28.807,0.977 C29.105,0.977 29.347,1.219 29.347,1.517 L29.347,38.236 C29.347,38.534 29.105,38.776 28.807,38.776 ZM28.267,2.057 L1.268,2.057 L1.268,37.696 L28.267,37.696 L28.267,2.057 ZM5.220,7.337 L18.528,7.337 C18.826,7.337 19.068,7.579 19.068,7.877 C19.068,8.175 18.826,8.417 18.528,8.417 L5.220,8.417 C4.922,8.417 4.680,8.175 4.680,7.877 C4.680,7.579 4.922,7.337 5.220,7.337 ZM5.220,13.337 L18.528,13.337 C18.826,13.337 19.068,13.578 19.068,13.877 C19.068,14.175 18.826,14.417 18.528,14.417 L5.220,14.417 C4.922,14.417 4.680,14.175 4.680,13.877 C4.680,13.578 4.922,13.337 5.220,13.337 ZM5.220,19.336 L18.528,19.336 C18.826,19.336 19.068,19.578 19.068,19.876 C19.068,20.175 18.826,20.416 18.528,20.416 L5.220,20.416 C4.922,20.416 4.680,20.175 4.680,19.876 C4.680,19.578 4.922,19.336 5.220,19.336 ZM5.220,25.336 L18.528,25.336 C18.826,25.336 19.068,25.578 19.068,25.876 C19.068,26.174 18.826,26.416 18.528,26.416 L5.220,26.416 C4.922,26.416 4.680,26.174 4.680,25.876 C4.680,25.578 4.922,25.336 5.220,25.336 ZM5.220,31.336 L18.528,31.336 C18.826,31.336 19.068,31.578 19.068,31.876 C19.068,32.174 18.826,32.416 18.528,32.416 L5.220,32.416 C4.922,32.416 4.680,32.174 4.680,31.876 C4.680,31.578 4.922,31.336 5.220,31.336 ZM22.578,7.337 L24.314,7.337 C24.612,7.337 24.854,7.579 24.854,7.877 C24.854,8.175 24.612,8.417 24.314,8.417 L22.578,8.417 C22.280,8.417 22.038,8.175 22.038,7.877 C22.038,7.579 22.280,7.337 22.578,7.337 ZM22.578,13.337 L24.314,13.337 C24.612,13.337 24.854,13.578 24.854,13.877 C24.854,14.175 24.612,14.417 24.314,14.417 L22.578,14.417 C22.280,14.417 22.038,14.175 22.038,13.877 C22.038,13.578 22.280,13.337 22.578,13.337 ZM22.578,19.336 L24.314,19.336 C24.612,19.336 24.854,19.578 24.854,19.876 C24.854,20.175 24.612,20.416 24.314,20.416 L22.578,20.416 C22.280,20.416 22.038,20.175 22.038,19.876 C22.038,19.578 22.280,19.336 22.578,19.336 ZM22.578,25.336 L24.314,25.336 C24.612,25.336 24.854,25.578 24.854,25.876 C24.854,26.174 24.612,26.416 24.314,26.416 L22.578,26.416 C22.280,26.416 22.038,26.174 22.038,25.876 C22.038,25.578 22.280,25.336 22.578,25.336 ZM22.578,31.336 L24.314,31.336 C24.612,31.336 24.854,31.578 24.854,31.876 C24.854,32.174 24.612,32.416 24.314,32.416 L22.578,32.416 C22.280,32.416 22.038,32.174 22.038,31.876 C22.038,31.578 22.280,31.336 22.578,31.336 Z"/>
</svg>