<svg
 xmlns="http://www.w3.org/2000/svg"
 xmlns:xlink="http://www.w3.org/1999/xlink"
 width="125px" height="163px">
<path fill-rule="evenodd" d="M90.614,147.619 C82.069,154.334 72.840,159.190 63.179,162.058 C62.926,162.133 62.669,162.171 62.410,162.171 C62.151,162.171 61.892,162.133 61.641,162.058 C51.980,159.193 42.751,154.334 34.207,147.619 C13.013,130.965 0.360,104.216 0.360,76.069 L0.360,24.580 C0.360,23.091 1.568,21.883 3.057,21.883 C42.702,21.883 60.166,1.476 60.338,1.271 C61.361,0.043 63.454,0.041 64.479,1.268 C64.730,1.562 82.385,21.885 121.763,21.885 C123.255,21.885 124.461,23.094 124.461,24.583 L124.461,76.069 C124.461,104.216 111.808,130.962 90.614,147.619 ZM119.065,27.251 C86.038,26.518 68.170,12.424 62.410,6.896 C56.650,12.421 38.782,26.518 5.755,27.251 L5.755,76.072 C5.755,102.575 17.637,127.741 37.541,143.380 C45.319,149.494 53.683,153.959 62.410,156.657 C71.138,153.956 79.501,149.494 87.279,143.380 C107.184,127.738 119.065,102.575 119.065,76.072 L119.065,27.251 ZM63.929,144.605 C63.476,144.916 62.944,145.075 62.410,145.075 C62.078,145.075 61.744,145.013 61.425,144.889 C55.458,142.547 49.666,139.185 44.211,134.898 C26.888,121.285 16.547,99.295 16.547,76.074 L16.547,39.769 C16.547,38.412 17.556,37.266 18.905,37.093 C38.871,34.546 52.760,27.424 60.894,21.896 C61.722,21.338 62.793,21.278 63.673,21.742 C64.555,22.212 65.108,23.126 65.108,24.127 L65.108,142.377 C65.108,143.267 64.666,144.101 63.929,144.605 ZM59.712,29.040 C51.225,34.101 38.683,39.643 21.942,42.119 L21.942,76.072 C21.942,97.652 31.514,118.056 47.545,130.655 C51.449,133.722 55.528,136.274 59.712,138.265 L59.712,29.040 Z"/>
</svg>