<svg
 xmlns="http://www.w3.org/2000/svg"
 xmlns:xlink="http://www.w3.org/1999/xlink"
 width="76px" height="75px">
<path fill-rule="evenodd" d="M74.918,38.354 L69.851,46.025 L70.362,55.214 C70.391,55.830 70.058,56.405 69.510,56.686 L61.328,60.824 L57.190,69.006 C56.914,69.559 56.335,69.894 55.718,69.858 L46.529,69.347 L38.858,74.414 C38.344,74.766 37.667,74.766 37.153,74.414 L29.483,69.347 L20.293,69.858 C19.677,69.887 19.102,69.554 18.821,69.006 L14.683,60.824 L6.501,56.686 C5.948,56.410 5.613,55.831 5.649,55.214 L6.160,46.025 L1.108,38.339 C0.767,37.821 0.767,37.151 1.108,36.634 L6.176,28.963 L5.665,19.774 C5.635,19.158 5.968,18.582 6.517,18.301 L14.699,14.164 L18.837,5.982 C19.113,5.429 19.691,5.093 20.309,5.130 L29.498,5.641 L37.168,0.573 C37.686,0.232 38.356,0.232 38.873,0.573 L46.544,5.641 L55.749,5.145 C56.364,5.116 56.940,5.449 57.221,5.997 L61.359,14.179 L69.541,18.317 C70.094,18.593 70.429,19.172 70.393,19.789 L69.882,28.978 L74.918,36.649 C75.259,37.166 75.259,37.837 74.918,38.354 ZM66.999,30.249 C66.826,29.965 66.739,29.637 66.752,29.304 L67.232,20.610 L59.499,16.705 C59.204,16.558 58.965,16.319 58.818,16.024 L54.912,8.291 L46.219,8.771 C45.885,8.800 45.551,8.712 45.273,8.523 L38.021,3.735 L30.769,8.523 C30.484,8.697 30.156,8.783 29.823,8.771 L21.130,8.291 L17.225,16.024 C17.077,16.319 16.838,16.558 16.543,16.705 L8.810,20.610 L9.291,29.304 C9.320,29.638 9.232,29.972 9.042,30.249 L4.254,37.501 L9.042,44.754 C9.216,45.038 9.303,45.366 9.291,45.699 L8.810,54.393 L16.558,58.282 C16.854,58.430 17.093,58.669 17.240,58.964 L21.145,66.697 L29.839,66.217 L29.917,66.217 C30.220,66.218 30.517,66.310 30.769,66.480 L38.021,71.269 L45.273,66.480 C45.557,66.306 45.886,66.220 46.219,66.232 L54.912,66.712 L58.818,58.980 C58.965,58.685 59.204,58.445 59.499,58.298 L67.232,54.393 L66.752,45.699 C66.723,45.365 66.810,45.031 66.999,44.754 L71.788,37.501 L66.999,30.249 ZM38.021,60.654 C25.252,60.654 14.869,50.271 14.869,37.501 C14.869,24.733 25.252,14.350 38.021,14.350 C50.790,14.350 61.173,24.733 61.173,37.501 C61.173,50.271 50.790,60.654 38.021,60.654 ZM38.021,17.449 C26.956,17.449 17.969,26.452 17.969,37.501 C17.969,48.550 26.956,57.554 38.021,57.554 C49.096,57.554 58.074,48.576 58.074,37.501 C58.074,26.427 49.096,17.449 38.021,17.449 Z"/>
</svg>