<svg
 xmlns="http://www.w3.org/2000/svg"
 xmlns:xlink="http://www.w3.org/1999/xlink"
 width="21px" height="22px">
<path fill-rule="evenodd" d="M20.046,11.644 C19.518,11.644 19.091,11.217 19.091,10.689 C19.091,8.477 18.230,6.398 16.665,4.834 C15.101,3.270 13.022,2.408 10.810,2.408 C10.282,2.408 9.855,1.981 9.855,1.453 C9.855,0.926 10.282,0.499 10.810,0.499 C13.532,0.499 16.091,1.559 18.015,3.484 C19.940,5.408 21.000,7.968 21.000,10.689 C21.000,11.217 20.573,11.644 20.046,11.644 ZM10.810,4.194 C14.392,4.194 17.306,7.108 17.306,10.689 C17.306,11.217 16.878,11.644 16.351,11.644 C15.824,11.644 15.397,11.217 15.397,10.689 C15.397,8.160 13.339,6.103 10.810,6.103 C10.282,6.103 9.855,5.675 9.855,5.148 C9.855,4.621 10.282,4.194 10.810,4.194 ZM7.078,10.515 L10.982,14.419 L12.919,12.482 C13.098,12.303 13.341,12.203 13.594,12.203 C13.847,12.203 14.090,12.303 14.269,12.482 L18.174,16.387 C18.547,16.760 18.547,17.364 18.174,17.737 L15.566,20.345 C14.373,21.537 12.480,21.819 10.235,21.136 C8.195,20.517 6.051,19.154 4.198,17.301 C1.608,14.712 -0.000,11.536 -0.000,9.014 C-0.000,7.753 0.399,6.687 1.153,5.933 C1.190,5.895 3.762,3.324 3.762,3.324 C3.941,3.145 4.184,3.044 4.437,3.044 C4.690,3.044 4.933,3.145 5.112,3.324 L9.015,7.228 C9.388,7.600 9.388,8.204 9.015,8.577 L7.078,10.515 ZM4.437,5.349 C3.672,6.113 2.529,7.257 2.503,7.282 C2.109,7.677 1.909,8.259 1.909,9.014 C1.909,11.018 3.337,13.741 5.548,15.951 C7.183,17.587 9.045,18.780 10.790,19.310 C12.306,19.770 13.555,19.656 14.216,18.995 L16.149,17.062 L13.594,14.507 L11.657,16.444 C11.478,16.623 11.235,16.724 10.982,16.724 C10.729,16.724 10.486,16.623 10.307,16.444 L5.053,11.190 C4.680,10.817 4.680,10.213 5.053,9.840 L6.990,7.903 L4.437,5.349 Z"/>
</svg>