<svg
 xmlns="http://www.w3.org/2000/svg"
 xmlns:xlink="http://www.w3.org/1999/xlink"
 width="1307px" height="789px">
<path fill-rule="evenodd" fill="rgb(234, 10, 42)"
 d="M1180.814,22.497 C1178.914,30.245 1171.943,36.000 1163.609,36.000 C1160.382,36.000 1157.366,35.124 1154.759,33.618 L952.483,235.894 C953.663,238.268 954.344,240.934 954.344,243.766 C954.344,253.560 946.404,261.500 936.609,261.500 C928.528,261.500 921.722,256.089 919.584,248.696 L753.635,248.696 C751.497,256.089 744.691,261.500 736.609,261.500 C733.614,261.500 730.795,260.750 728.321,259.439 L627.592,360.168 C628.076,361.783 628.344,363.493 628.344,365.266 C628.344,375.060 620.404,383.000 610.609,383.000 C602.869,383.000 596.305,378.033 593.884,371.118 L424.731,371.118 L7.399,788.451 L0.328,781.380 L421.863,359.844 L423.137,361.118 L593.383,361.118 C595.253,353.328 602.246,347.531 610.609,347.531 C614.932,347.531 618.890,349.081 621.967,351.651 L721.160,252.457 C719.711,249.887 718.875,246.926 718.875,243.766 C718.875,233.971 726.815,226.031 736.609,226.031 C744.641,226.031 751.417,231.374 753.599,238.696 L919.620,238.696 C921.802,231.374 928.578,226.031 936.609,226.031 C939.931,226.031 943.027,226.961 945.685,228.550 L1147.853,26.382 C1146.597,23.948 1145.875,21.193 1145.875,18.266 C1145.875,8.471 1153.815,0.531 1163.609,0.531 C1171.381,0.531 1177.969,5.539 1180.365,12.497 L1306.793,12.497 L1306.793,22.497 L1180.814,22.497 Z"/>
</svg>