<svg
 xmlns="http://www.w3.org/2000/svg"
 xmlns:xlink="http://www.w3.org/1999/xlink"
 width="56px" height="55px">
<path fill-rule="evenodd"  fill="rgb(173, 226, 255)"
 d="M49.500,0.000 C46.191,0.000 43.500,2.691 43.500,6.000 C43.500,7.035 43.763,8.009 44.226,8.860 L34.397,18.689 C33.042,17.634 31.346,17.000 29.500,17.000 C27.654,17.000 25.958,17.634 24.602,18.688 L16.933,11.019 C17.285,10.424 17.500,9.740 17.500,9.000 C17.500,6.794 15.706,5.000 13.500,5.000 C11.294,5.000 9.500,6.794 9.500,9.000 C9.500,11.206 11.294,13.000 13.500,13.000 C14.240,13.000 14.924,12.785 15.519,12.433 L23.188,20.102 C22.134,21.458 21.500,23.154 21.500,25.000 C21.500,26.846 22.134,28.542 23.188,29.897 L10.524,42.562 C9.458,41.595 8.049,41.000 6.500,41.000 C3.191,41.000 0.500,43.691 0.500,47.000 C0.500,50.309 3.191,53.000 6.500,53.000 C9.809,53.000 12.500,50.309 12.500,47.000 C12.500,45.965 12.237,44.991 11.774,44.140 L24.603,31.311 C25.709,32.171 27.043,32.747 28.501,32.930 L28.501,43.090 C25.668,43.568 23.501,46.032 23.501,49.000 C23.501,52.309 26.192,55.000 29.501,55.000 C32.810,55.000 35.501,52.309 35.501,49.000 C35.501,46.033 33.334,43.569 30.501,43.090 L30.501,32.930 C31.959,32.747 33.293,32.171 34.399,31.311 L42.068,38.980 C41.715,39.576 41.500,40.260 41.500,41.000 C41.500,43.206 43.294,45.000 45.500,45.000 C47.706,45.000 49.500,43.206 49.500,41.000 C49.500,38.794 47.706,37.000 45.500,37.000 C44.760,37.000 44.076,37.215 43.481,37.567 L35.812,29.898 C36.866,28.542 37.500,26.846 37.500,25.000 C37.500,23.154 36.866,21.458 35.812,20.103 L45.477,10.438 C46.542,11.405 47.951,12.000 49.500,12.000 C52.809,12.000 55.500,9.309 55.500,6.000 C55.500,2.691 52.809,0.000 49.500,0.000 ZM11.500,9.000 C11.500,7.897 12.397,7.000 13.500,7.000 C14.603,7.000 15.500,7.897 15.500,9.000 C15.500,10.103 14.603,11.000 13.500,11.000 C12.397,11.000 11.500,10.103 11.500,9.000 ZM6.500,51.000 C4.294,51.000 2.500,49.206 2.500,47.000 C2.500,44.794 4.294,43.000 6.500,43.000 C8.706,43.000 10.500,44.794 10.500,47.000 C10.500,49.206 8.706,51.000 6.500,51.000 ZM33.500,49.000 C33.500,51.206 31.706,53.000 29.500,53.000 C27.294,53.000 25.500,51.206 25.500,49.000 C25.500,46.794 27.294,45.000 29.500,45.000 C31.706,45.000 33.500,46.794 33.500,49.000 ZM29.500,31.000 C26.191,31.000 23.500,28.309 23.500,25.000 C23.500,21.691 26.191,19.000 29.500,19.000 C32.809,19.000 35.500,21.691 35.500,25.000 C35.500,28.309 32.809,31.000 29.500,31.000 ZM47.500,41.000 C47.500,42.103 46.603,43.000 45.500,43.000 C44.397,43.000 43.500,42.103 43.500,41.000 C43.500,39.897 44.397,39.000 45.500,39.000 C46.603,39.000 47.500,39.897 47.500,41.000 ZM49.500,10.000 C47.294,10.000 45.500,8.206 45.500,6.000 C45.500,3.794 47.294,2.000 49.500,2.000 C51.706,2.000 53.500,3.794 53.500,6.000 C53.500,8.206 51.706,10.000 49.500,10.000 Z"/>
</svg>