<svg
 xmlns="http://www.w3.org/2000/svg"
 xmlns:xlink="http://www.w3.org/1999/xlink"
 width="63px" height="61px">
<path fill-rule="evenodd"  fill="rgb(173, 226, 255)"
 d="M62.606,47.785 C62.606,49.020 61.942,50.170 60.873,50.788 C60.329,51.101 59.734,51.251 59.147,51.251 C57.948,51.251 56.782,50.630 56.141,49.519 L50.914,40.464 C50.035,40.669 49.136,40.773 48.231,40.773 C47.197,40.773 46.156,40.638 45.129,40.362 C42.056,39.539 39.488,37.568 37.897,34.813 C34.613,29.125 36.569,21.826 42.257,18.542 C47.944,15.258 55.243,17.214 58.527,22.902 C60.118,25.657 60.541,28.867 59.717,31.940 C59.202,33.863 58.237,35.588 56.913,37.000 L62.141,46.055 C62.445,46.582 62.606,47.181 62.606,47.785 ZM57.957,31.468 C58.654,28.866 58.296,26.147 56.949,23.813 C55.082,20.581 51.684,18.771 48.195,18.771 C46.485,18.771 44.753,19.205 43.168,20.120 C38.350,22.902 36.694,29.084 39.475,33.901 C40.823,36.235 42.998,37.905 45.601,38.602 C48.204,39.299 50.923,38.941 53.256,37.594 C55.590,36.247 57.259,34.071 57.957,31.468 ZM60.563,46.966 L55.532,38.253 C55.102,38.587 54.647,38.896 54.168,39.173 C53.688,39.449 53.195,39.690 52.691,39.896 L57.720,48.608 C58.172,49.392 59.178,49.661 59.962,49.209 C60.468,48.916 60.783,48.371 60.783,47.785 C60.783,47.500 60.707,47.217 60.563,46.966 ZM52.538,36.350 C51.205,37.120 49.725,37.513 48.226,37.513 C47.475,37.513 46.718,37.415 45.973,37.215 C43.740,36.616 41.874,35.185 40.719,33.183 C39.563,31.182 39.256,28.850 39.854,26.618 C40.453,24.386 41.884,22.520 43.886,21.364 C46.906,19.620 50.655,19.853 53.437,21.958 C53.838,22.261 53.917,22.833 53.613,23.234 C53.310,23.636 52.738,23.715 52.337,23.411 C50.141,21.750 47.182,21.566 44.797,22.943 C41.536,24.826 40.414,29.011 42.297,32.272 C43.209,33.852 44.682,34.982 46.444,35.454 C48.206,35.926 50.047,35.684 51.627,34.772 C53.120,33.910 54.223,32.530 54.734,30.884 C55.242,29.248 55.122,27.497 54.395,25.954 C54.180,25.499 54.375,24.956 54.831,24.741 C55.286,24.527 55.829,24.722 56.043,25.177 C56.965,27.134 57.118,29.352 56.475,31.425 C55.828,33.509 54.430,35.259 52.538,36.350 ZM53.765,16.422 C53.261,16.422 52.853,16.014 52.853,15.511 L52.853,6.846 C52.853,6.430 52.515,6.091 52.098,6.091 L31.682,6.091 L23.389,6.091 L10.913,6.091 C10.410,6.091 10.002,5.683 10.002,5.180 C10.002,4.677 10.410,4.268 10.913,4.268 L22.477,4.268 L22.477,2.477 C22.477,1.217 23.503,0.191 24.764,0.191 L30.307,0.191 C31.567,0.191 32.593,1.217 32.593,2.477 L32.593,4.268 L52.098,4.268 C53.520,4.268 54.676,5.425 54.676,6.846 L54.676,15.511 C54.676,16.014 54.268,16.422 53.765,16.422 ZM30.770,2.477 C30.770,2.222 30.562,2.014 30.307,2.014 L24.764,2.014 C24.508,2.014 24.300,2.222 24.300,2.477 L24.300,2.477 L24.300,4.268 L30.770,4.268 L30.770,2.477 ZM33.566,31.907 C34.069,31.907 34.477,32.315 34.477,32.818 L34.477,40.871 C34.477,41.374 34.069,41.782 33.566,41.782 L29.869,41.782 C29.365,41.782 28.957,41.374 28.957,40.871 L28.957,32.818 C28.957,32.315 29.365,31.907 29.869,31.907 L33.566,31.907 ZM30.780,39.959 L32.654,39.959 L32.654,33.729 L30.780,33.729 L30.780,39.959 ZM25.202,27.249 C25.705,27.249 26.113,27.657 26.113,28.161 L26.113,40.871 C26.113,41.374 25.705,41.782 25.202,41.782 L21.504,41.782 C21.001,41.782 20.593,41.374 20.593,40.871 L20.593,28.161 C20.593,27.657 21.001,27.249 21.504,27.249 L25.202,27.249 ZM22.416,39.959 L24.290,39.959 L24.290,29.072 L22.416,29.072 L22.416,39.959 ZM16.838,31.907 C17.341,31.907 17.749,32.315 17.749,32.818 L17.749,40.871 C17.749,41.374 17.341,41.782 16.838,41.782 L13.140,41.782 C12.637,41.782 12.229,41.374 12.229,40.871 L12.229,32.818 C12.229,32.315 12.637,31.907 13.140,31.907 L16.838,31.907 ZM14.052,39.959 L15.926,39.959 L15.926,33.729 L14.052,33.729 L14.052,39.959 ZM31.717,27.248 C30.042,27.248 28.680,25.885 28.680,24.210 C28.680,23.991 28.703,23.777 28.748,23.571 L25.421,21.683 C24.878,22.189 24.151,22.499 23.353,22.499 C22.555,22.499 21.828,22.189 21.286,21.683 L17.959,23.571 C18.003,23.777 18.027,23.991 18.027,24.210 C18.027,25.885 16.664,27.248 14.989,27.248 C13.314,27.248 11.952,25.885 11.952,24.210 C11.952,22.535 13.314,21.172 14.989,21.172 C15.788,21.172 16.514,21.482 17.057,21.987 L20.384,20.099 C20.339,19.893 20.316,19.680 20.316,19.461 C20.316,17.785 21.678,16.423 23.353,16.423 C25.028,16.423 26.391,17.785 26.391,19.461 C26.391,19.680 26.367,19.893 26.323,20.099 L29.650,21.987 C30.192,21.482 30.919,21.172 31.717,21.172 C32.048,21.172 32.365,21.225 32.663,21.323 L37.654,14.349 C37.271,13.840 37.044,13.209 37.044,12.524 C37.044,10.849 38.406,9.487 40.081,9.487 C41.756,9.487 43.119,10.849 43.119,12.524 C43.119,14.199 41.756,15.562 40.081,15.562 C39.751,15.562 39.433,15.508 39.135,15.411 L34.144,22.385 C34.527,22.894 34.755,23.526 34.755,24.210 C34.755,25.885 33.392,27.248 31.717,27.248 ZM14.989,22.994 C14.319,22.994 13.774,23.539 13.774,24.210 C13.774,24.880 14.319,25.425 14.989,25.425 C15.659,25.425 16.204,24.880 16.204,24.210 C16.204,23.539 15.659,22.994 14.989,22.994 ZM23.353,18.245 C22.683,18.245 22.138,18.790 22.138,19.460 C22.138,20.130 22.683,20.676 23.353,20.676 C24.023,20.676 24.568,20.130 24.568,19.460 C24.568,18.790 24.023,18.245 23.353,18.245 ZM31.717,22.994 C31.047,22.994 30.502,23.539 30.502,24.210 C30.502,24.880 31.047,25.425 31.717,25.425 C32.387,25.425 32.932,24.880 32.932,24.210 C32.932,23.539 32.387,22.994 31.717,22.994 ZM40.081,13.740 C40.751,13.740 41.296,13.194 41.296,12.524 C41.296,11.854 40.751,11.309 40.081,11.309 C39.411,11.309 38.866,11.854 38.866,12.524 C38.866,13.194 39.411,13.740 40.081,13.740 ZM38.233,41.782 C37.729,41.782 37.321,41.374 37.321,40.871 L37.321,38.195 C37.321,37.692 37.729,37.284 38.233,37.284 C38.736,37.284 39.144,37.692 39.144,38.195 L39.144,39.959 L41.930,39.959 C42.433,39.959 42.841,40.367 42.841,40.871 C42.841,41.374 42.433,41.782 41.930,41.782 L38.233,41.782 ZM7.268,6.091 L2.972,6.091 C2.556,6.091 2.217,6.430 2.217,6.846 L2.217,44.443 C2.217,44.859 2.556,45.198 2.972,45.198 L10.167,45.198 L44.903,45.198 L51.281,45.198 C51.784,45.198 52.192,45.606 52.192,46.109 C52.192,46.613 51.784,47.021 51.281,47.021 L45.815,47.021 L45.815,49.026 C45.815,50.169 44.885,51.098 43.743,51.098 L34.621,51.098 L38.915,59.482 C39.144,59.930 38.967,60.479 38.519,60.709 C38.386,60.776 38.244,60.809 38.104,60.809 C37.773,60.809 37.454,60.628 37.293,60.313 L32.573,51.098 L22.497,51.098 L17.778,60.313 C17.616,60.628 17.297,60.809 16.966,60.809 C16.826,60.809 16.684,60.777 16.551,60.709 C16.103,60.479 15.926,59.930 16.155,59.482 L20.450,51.098 L11.328,51.098 C10.185,51.098 9.255,50.169 9.255,49.026 L9.255,47.021 L2.972,47.021 C1.551,47.021 0.394,45.864 0.394,44.443 L0.394,6.846 C0.394,5.425 1.551,4.268 2.972,4.268 L7.268,4.268 C7.771,4.268 8.179,4.677 8.179,5.180 C8.179,5.683 7.771,6.091 7.268,6.091 ZM11.078,49.026 C11.078,49.164 11.190,49.276 11.328,49.276 L43.743,49.276 C43.880,49.276 43.992,49.164 43.992,49.026 L43.992,47.021 L11.078,47.021 L11.078,49.026 Z"/>
</svg>