<svg
 xmlns="http://www.w3.org/2000/svg"
 xmlns:xlink="http://www.w3.org/1999/xlink"
 width="44px" height="54px">
<path fill-rule="evenodd"  fill="rgb(173, 226, 255)"
 d="M38.740,53.293 L5.316,53.293 C2.564,53.293 0.325,51.054 0.325,48.302 L0.325,9.861 C0.325,7.109 2.564,4.869 5.316,4.869 L13.133,4.869 C14.264,3.792 15.792,3.129 17.473,3.129 L18.371,3.129 C19.057,1.772 20.466,0.877 22.028,0.877 C23.591,0.877 24.999,1.772 25.685,3.129 L26.582,3.129 C28.263,3.129 29.791,3.792 30.921,4.869 L38.740,4.869 C41.493,4.869 43.732,7.109 43.732,9.861 L43.732,48.302 C43.732,51.054 41.493,53.293 38.740,53.293 ZM26.582,5.176 L24.988,5.176 C24.528,5.176 24.124,4.869 24.002,4.425 C23.757,3.541 22.946,2.924 22.028,2.924 C21.111,2.924 20.299,3.541 20.055,4.425 C19.933,4.869 19.529,5.176 19.068,5.176 L17.473,5.176 C15.251,5.176 13.422,6.891 13.239,9.067 L30.816,9.067 C30.633,6.891 28.804,5.176 26.582,5.176 ZM41.685,9.861 C41.685,8.237 40.364,6.917 38.740,6.917 L32.355,6.917 C32.691,7.686 32.878,8.534 32.878,9.425 L32.878,10.090 C32.878,10.656 32.420,11.114 31.854,11.114 L12.200,11.114 C11.635,11.114 11.177,10.656 11.177,10.090 L11.177,9.425 C11.177,8.534 11.364,7.686 11.699,6.917 L5.316,6.917 C3.693,6.917 2.372,8.237 2.372,9.861 L2.372,48.302 C2.372,49.925 3.693,51.246 5.316,51.246 L38.740,51.246 C40.364,51.246 41.685,49.925 41.685,48.302 L41.685,9.861 ZM36.771,40.599 L22.028,40.599 C21.463,40.599 21.005,40.140 21.005,39.575 C21.005,39.009 21.463,38.551 22.028,38.551 L36.771,38.551 C37.336,38.551 37.795,39.009 37.795,39.575 C37.795,40.140 37.336,40.599 36.771,40.599 ZM33.188,32.708 C33.379,32.899 33.488,33.163 33.488,33.432 C33.488,33.701 33.379,33.965 33.188,34.156 C32.998,34.346 32.734,34.456 32.465,34.456 C32.195,34.456 31.931,34.346 31.741,34.156 C31.550,33.965 31.441,33.701 31.441,33.432 C31.441,33.163 31.550,32.899 31.741,32.708 C31.931,32.518 32.195,32.408 32.465,32.408 C32.734,32.408 32.998,32.518 33.188,32.708 ZM22.028,32.408 L28.158,32.408 C28.724,32.408 29.182,32.867 29.182,33.432 C29.182,33.998 28.724,34.456 28.158,34.456 L22.028,34.456 C21.463,34.456 21.005,33.998 21.005,33.432 C21.005,32.867 21.463,32.408 22.028,32.408 ZM36.771,29.542 L22.028,29.542 C21.463,29.542 21.005,29.083 21.005,28.518 C21.005,27.952 21.463,27.494 22.028,27.494 L36.771,27.494 C37.336,27.494 37.795,27.952 37.795,28.518 C37.795,29.083 37.336,29.542 36.771,29.542 ZM33.188,21.652 C33.379,21.842 33.488,22.106 33.488,22.376 C33.488,22.645 33.379,22.909 33.188,23.099 C32.998,23.290 32.734,23.399 32.465,23.399 C32.195,23.399 31.931,23.290 31.741,23.099 C31.550,22.909 31.441,22.645 31.441,22.376 C31.441,22.106 31.550,21.842 31.741,21.652 C31.931,21.461 32.195,21.352 32.465,21.352 C32.734,21.352 32.998,21.461 33.188,21.652 ZM22.028,21.352 L28.158,21.352 C28.724,21.352 29.182,21.810 29.182,22.376 C29.182,22.941 28.724,23.399 28.158,23.399 L22.028,23.399 C21.463,23.399 21.005,22.941 21.005,22.376 C21.005,21.810 21.463,21.352 22.028,21.352 ZM36.771,18.485 L22.028,18.485 C21.463,18.485 21.005,18.027 21.005,17.461 C21.005,16.896 21.463,16.438 22.028,16.438 L36.771,16.438 C37.336,16.438 37.795,16.896 37.795,17.461 C37.795,18.027 37.336,18.485 36.771,18.485 ZM10.416,22.741 C10.217,22.941 9.954,23.041 9.693,23.041 C9.431,23.041 9.169,22.941 8.969,22.741 L6.896,20.668 C6.496,20.269 6.496,19.620 6.896,19.221 C7.296,18.821 7.944,18.821 8.344,19.221 L9.693,20.569 L14.070,16.191 C14.470,15.792 15.118,15.792 15.518,16.192 C15.918,16.591 15.918,17.240 15.518,17.640 L10.416,22.741 ZM8.105,27.494 L13.019,27.494 C13.585,27.494 14.043,27.952 14.043,28.518 L14.043,33.432 C14.043,33.998 13.585,34.456 13.019,34.456 L8.105,34.456 C7.540,34.456 7.081,33.998 7.081,33.432 L7.081,28.518 C7.081,27.952 7.540,27.494 8.105,27.494 ZM9.129,32.408 L11.995,32.408 L11.995,29.542 L9.129,29.542 L9.129,32.408 ZM8.105,38.551 L13.019,38.551 C13.585,38.551 14.043,39.009 14.043,39.575 L14.043,44.489 C14.043,45.054 13.585,45.513 13.019,45.513 L8.105,45.513 C7.540,45.513 7.081,45.054 7.081,44.489 L7.081,39.575 C7.081,39.009 7.540,38.551 8.105,38.551 ZM9.129,43.465 L11.995,43.465 L11.995,40.599 L9.129,40.599 L9.129,43.465 ZM22.028,43.465 L28.158,43.465 C28.724,43.465 29.182,43.923 29.182,44.489 C29.182,45.054 28.724,45.513 28.158,45.513 L22.028,45.513 C21.463,45.513 21.005,45.054 21.005,44.489 C21.005,43.923 21.463,43.465 22.028,43.465 ZM32.465,43.465 C32.734,43.465 32.998,43.575 33.188,43.765 C33.379,43.955 33.488,44.220 33.488,44.489 C33.488,44.758 33.379,45.022 33.188,45.213 C32.998,45.403 32.734,45.513 32.465,45.513 C32.195,45.513 31.931,45.403 31.741,45.213 C31.550,45.022 31.441,44.758 31.441,44.489 C31.441,44.220 31.550,43.955 31.741,43.765 C31.931,43.575 32.195,43.465 32.465,43.465 ZM22.027,5.279 C22.297,5.279 22.561,5.388 22.751,5.579 C22.942,5.769 23.051,6.033 23.051,6.303 C23.051,6.572 22.942,6.836 22.751,7.026 C22.561,7.217 22.297,7.326 22.027,7.326 C21.758,7.326 21.494,7.217 21.304,7.026 C21.113,6.836 21.004,6.572 21.004,6.303 C21.004,6.033 21.113,5.769 21.304,5.579 C21.494,5.388 21.758,5.279 22.027,5.279 Z"/>
</svg>