<svg
 xmlns="http://www.w3.org/2000/svg"
 xmlns:xlink="http://www.w3.org/1999/xlink"
 width="48px" height="61px">
<path fill-rule="evenodd"  opacity="0.302" fill="rgb(0, 0, 0)"
 d="M47.296,22.654 C45.603,33.695 20.726,60.873 20.726,60.873 C20.726,60.873 4.182,33.695 5.875,22.654 C7.567,11.613 18.212,2.663 29.650,2.663 C41.089,2.663 48.989,11.613 47.296,22.654 ZM27.907,14.044 C22.985,14.044 18.405,17.898 17.676,22.653 C16.947,27.407 20.346,31.261 25.268,31.261 C30.189,31.261 34.770,27.407 35.499,22.653 C36.228,17.898 32.829,14.044 27.907,14.044 Z"/>
<path fill-rule="evenodd"  fill="rgb(255, 255, 255)"
 d="M21.646,10.595 C27.629,10.595 32.479,15.454 32.479,21.448 C32.479,27.441 27.629,32.300 21.646,32.300 C15.663,32.300 10.813,27.441 10.813,21.448 C10.813,15.454 15.663,10.595 21.646,10.595 Z"/>
<path fill-rule="evenodd"  fill="rgb(28, 91, 174)"
 d="M20.726,60.873 C20.726,60.873 0.015,32.717 0.015,21.279 C0.015,9.841 9.287,0.568 20.726,0.568 C32.164,0.568 41.436,9.841 41.436,21.279 C41.436,32.717 20.726,60.873 20.726,60.873 ZM20.727,12.359 C15.806,12.359 11.816,16.352 11.816,21.277 C11.816,26.202 15.806,30.195 20.727,30.195 C25.649,30.195 29.639,26.202 29.639,21.277 C29.639,16.352 25.649,12.359 20.727,12.359 Z"/>
</svg>