<svg
 xmlns="http://www.w3.org/2000/svg"
 xmlns:xlink="http://www.w3.org/1999/xlink"
 width="84px" height="95px">
<path fill-rule="evenodd"  fill="rgb(100, 203, 255)"
 d="M80.826,25.032 L80.826,69.744 L42.104,92.100 L3.382,69.744 L3.382,25.032 L42.104,2.676 L80.826,25.032 M82.168,22.709 L43.446,0.352 C42.616,-0.127 41.593,-0.127 40.763,0.352 L2.041,22.709 C1.211,23.188 0.699,24.074 0.699,25.032 L0.699,69.744 C0.699,70.703 1.211,71.588 2.041,72.068 L40.763,94.424 C41.593,94.903 42.616,94.903 43.446,94.424 L82.168,72.068 C82.998,71.588 83.509,70.703 83.509,69.744 L83.509,25.032 C83.509,24.074 82.998,23.188 82.168,22.709 L82.168,22.709 Z"/>
</svg>