<?xml version="1.0" encoding="utf-8"?><svg viewBox="0 0 125 163" xmlns="http://www.w3.org/2000/svg" xmlns:xlink="http://www.w3.org/1999/xlink"><style>:root>svg{display:none}:root>svg:target{display:block}</style><svg viewBox="0 0 125 163" id="ic_advantage" xmlns="http://www.w3.org/2000/svg"><path fill-rule="evenodd" d="M90.614 147.619c-8.545 6.715-17.774 11.571-27.435 14.439a2.696 2.696 0 0 1-1.538 0c-9.661-2.865-18.89-7.724-27.434-14.439C13.013 130.965.36 104.216.36 76.069V24.58a2.698 2.698 0 0 1 2.697-2.697c39.645 0 57.109-20.407 57.281-20.612 1.023-1.228 3.116-1.23 4.141-.003.251.294 17.906 20.617 57.284 20.617a2.697 2.697 0 0 1 2.698 2.698v51.486c0 28.147-12.653 54.893-33.847 71.55zm28.451-120.368C86.038 26.518 68.17 12.424 62.41 6.896c-5.76 5.525-23.628 19.622-56.655 20.355v48.821c0 26.503 11.882 51.669 31.786 67.308 7.778 6.114 16.142 10.579 24.869 13.277 8.728-2.701 17.091-7.163 24.869-13.277 19.905-15.642 31.786-40.805 31.786-67.308V27.251zM63.929 144.605a2.685 2.685 0 0 1-2.504.284c-5.967-2.342-11.759-5.704-17.214-9.991-17.323-13.613-27.664-35.603-27.664-58.824V39.769a2.699 2.699 0 0 1 2.358-2.676c19.966-2.547 33.855-9.669 41.989-15.197a2.715 2.715 0 0 1 2.779-.154 2.701 2.701 0 0 1 1.435 2.385v118.25c0 .89-.442 1.724-1.179 2.228zM59.712 29.04c-8.487 5.061-21.029 10.603-37.77 13.079v33.953c0 21.58 9.572 41.984 25.603 54.583 3.904 3.067 7.983 5.619 12.167 7.61V29.04z"/></svg><svg viewBox="0 0 76 75" id="ic_number_one" xmlns="http://www.w3.org/2000/svg"><path fill-rule="evenodd" d="M74.918 38.354l-5.067 7.671.511 9.189a1.57 1.57 0 0 1-.852 1.472l-8.182 4.138-4.138 8.182a1.544 1.544 0 0 1-1.472.852l-9.189-.511-7.671 5.067a1.508 1.508 0 0 1-1.705 0l-7.67-5.067-9.19.511a1.57 1.57 0 0 1-1.472-.852l-4.138-8.182-8.182-4.138a1.544 1.544 0 0 1-.852-1.472l.511-9.189-5.052-7.686a1.549 1.549 0 0 1 0-1.705l5.068-7.671-.511-9.189a1.568 1.568 0 0 1 .852-1.473l8.182-4.137 4.138-8.182a1.542 1.542 0 0 1 1.472-.852l9.189.511 7.67-5.068a1.549 1.549 0 0 1 1.705 0l7.671 5.068 9.205-.496a1.571 1.571 0 0 1 1.472.852l4.138 8.182 8.182 4.138c.553.276.888.855.852 1.472l-.511 9.189 5.036 7.671a1.549 1.549 0 0 1 0 1.705zm-7.919-8.105a1.69 1.69 0 0 1-.247-.945l.48-8.694-7.733-3.905a1.516 1.516 0 0 1-.681-.681l-3.906-7.733-8.693.48a1.459 1.459 0 0 1-.946-.248l-7.252-4.788-7.252 4.788c-.285.174-.613.26-.946.248l-8.693-.48-3.905 7.733a1.523 1.523 0 0 1-.682.681L8.81 20.61l.481 8.694a1.45 1.45 0 0 1-.249.945l-4.788 7.252 4.788 7.253c.174.284.261.612.249.945l-.481 8.694 7.748 3.889c.296.148.535.387.682.682l3.905 7.733 8.694-.48h.078c.303.001.6.093.852.263l7.252 4.789 7.252-4.789c.284-.174.613-.26.946-.248l8.693.48 3.906-7.732c.147-.295.386-.535.681-.682l7.733-3.905-.48-8.694a1.454 1.454 0 0 1 .247-.945l4.789-7.253-4.789-7.252zM38.021 60.654c-12.769 0-23.152-10.383-23.152-23.153 0-12.768 10.383-23.151 23.152-23.151 12.769 0 23.152 10.383 23.152 23.151 0 12.77-10.383 23.153-23.152 23.153zm0-43.205c-11.065 0-20.052 9.003-20.052 20.052s8.987 20.053 20.052 20.053c11.075 0 20.053-8.978 20.053-20.053 0-11.074-8.978-20.052-20.053-20.052z"/></svg><svg viewBox="0 0 21 22" id="ic_phone" xmlns="http://www.w3.org/2000/svg"><path fill-rule="evenodd" d="M20.046 11.644a.954.954 0 0 1-.955-.955 8.222 8.222 0 0 0-2.426-5.855 8.226 8.226 0 0 0-5.855-2.426.954.954 0 1 1 0-1.909 10.12 10.12 0 0 1 7.205 2.985A10.122 10.122 0 0 1 21 10.689a.954.954 0 0 1-.954.955zm-9.236-7.45a6.503 6.503 0 0 1 6.496 6.495.955.955 0 1 1-1.909 0 4.592 4.592 0 0 0-4.587-4.586.955.955 0 1 1 0-1.909zm-3.732 6.321l3.904 3.904 1.937-1.937a.954.954 0 0 1 1.35 0l3.905 3.905a.954.954 0 0 1 0 1.35l-2.608 2.608c-1.193 1.192-3.086 1.474-5.331.791-2.04-.619-4.184-1.982-6.037-3.835C1.608 14.712 0 11.536 0 9.014c0-1.261.399-2.327 1.153-3.081l2.609-2.609a.955.955 0 0 1 1.35 0l3.903 3.904a.953.953 0 0 1 0 1.349l-1.937 1.938zM4.437 5.349L2.503 7.282c-.394.395-.594.977-.594 1.732 0 2.004 1.428 4.727 3.639 6.937 1.635 1.636 3.497 2.829 5.242 3.359 1.516.46 2.765.346 3.426-.315l1.933-1.933-2.555-2.555-1.937 1.937a.955.955 0 0 1-1.35 0L5.053 11.19a.954.954 0 0 1 0-1.35L6.99 7.903 4.437 5.349z"/></svg></svg>